<svg width="167" height="46" viewBox="0 0 167 46" fill="none" xmlns="http://www.w3.org/2000/svg">
<rect width="167" height="46" rx="6" fill="#4282F8"/>
<path d="M30.5918 30H29.1807V19.3916H22.9634V30H21.5605V18.0967H30.5918V30ZM36.7098 30.1992C35.4536 30.1992 34.4492 29.8035 33.6966 29.0122C32.9496 28.2153 32.576 27.1611 32.576 25.8496C32.576 24.4219 32.9662 23.3068 33.7464 22.5044C34.5267 21.702 35.5809 21.3008 36.909 21.3008C38.1763 21.3008 39.1641 21.6909 39.8724 22.4712C40.5863 23.2515 40.9432 24.3333 40.9432 25.7168C40.9432 27.0726 40.5586 28.16 39.7894 28.979C39.0257 29.7925 37.9992 30.1992 36.7098 30.1992ZM36.8094 22.4463C35.9351 22.4463 35.2433 22.7451 34.7342 23.3428C34.2251 23.9349 33.9705 24.7539 33.9705 25.7998C33.9705 26.807 34.2279 27.6011 34.7425 28.1821C35.2572 28.7632 35.9461 29.0537 36.8094 29.0537C37.6893 29.0537 38.3644 28.7687 38.8348 28.1987C39.3107 27.6287 39.5487 26.818 39.5487 25.7666C39.5487 24.7041 39.3107 23.8851 38.8348 23.3096C38.3644 22.734 37.6893 22.4463 36.8094 22.4463ZM48.572 29.6099C47.919 30.0028 47.1442 30.1992 46.2477 30.1992C45.0358 30.1992 44.0563 29.8063 43.3093 29.0205C42.5677 28.2292 42.197 27.2054 42.197 25.9492C42.197 24.5492 42.5982 23.4258 43.4006 22.5791C44.203 21.7269 45.2738 21.3008 46.613 21.3008C47.36 21.3008 48.0186 21.4391 48.5886 21.7158V23.1104C47.9577 22.6676 47.2826 22.4463 46.5632 22.4463C45.6943 22.4463 44.9805 22.759 44.4216 23.3843C43.8682 24.0041 43.5915 24.8203 43.5915 25.833C43.5915 26.8291 43.8516 27.6149 44.3718 28.1904C44.8975 28.766 45.6003 29.0537 46.4802 29.0537C47.2217 29.0537 47.919 28.8075 48.572 28.3149V29.6099ZM59.4712 30H58.1265V22.9941C58.0047 23.3483 57.8166 23.8685 57.562 24.5547L55.437 30H54.2168L52.0254 24.5547C51.9092 24.2614 51.721 23.7412 51.461 22.9941V30H50.2905V21.5H52.0254L54.2666 27.0449C54.4271 27.4489 54.6319 28.0078 54.8809 28.7217L55.4868 27.0781L57.6616 21.5H59.4712V30ZM65.4398 30.1992C64.1836 30.1992 63.1792 29.8035 62.4266 29.0122C61.6796 28.2153 61.306 27.1611 61.306 25.8496C61.306 24.4219 61.6962 23.3068 62.4764 22.5044C63.2567 21.702 64.3109 21.3008 65.639 21.3008C66.9063 21.3008 67.8941 21.6909 68.6024 22.4712C69.3163 23.2515 69.6732 24.3333 69.6732 25.7168C69.6732 27.0726 69.2886 28.16 68.5194 28.979C67.7557 29.7925 66.7292 30.1992 65.4398 30.1992ZM65.5394 22.4463C64.6651 22.4463 63.9733 22.7451 63.4642 23.3428C62.9551 23.9349 62.7005 24.7539 62.7005 25.7998C62.7005 26.807 62.9579 27.6011 63.4725 28.1821C63.9872 28.7632 64.6761 29.0537 65.5394 29.0537C66.4193 29.0537 67.0944 28.7687 67.5648 28.1987C68.0407 27.6287 68.2787 26.818 68.2787 25.7666C68.2787 24.7041 68.0407 23.8851 67.5648 23.3096C67.0944 22.734 66.4193 22.4463 65.5394 22.4463ZM76.8454 22.6621H74.2971V30H72.9357V22.6621H70.3791V21.5H76.8454V22.6621ZM79.5352 28.7715H79.502V33.9097H78.1407V21.5H79.502V22.9941H79.5352C80.2048 21.8652 81.1843 21.3008 82.4737 21.3008C83.5694 21.3008 84.4244 21.6826 85.0386 22.4463C85.6529 23.2044 85.96 24.2227 85.96 25.501C85.96 26.9232 85.6141 28.0632 84.9224 28.9209C84.2307 29.7731 83.2844 30.1992 82.0835 30.1992C80.9823 30.1992 80.1329 29.7233 79.5352 28.7715ZM79.502 25.3433V26.5303C79.502 27.2331 79.7289 27.8307 80.1827 28.3232C80.642 28.8102 81.223 29.0537 81.9258 29.0537C82.7504 29.0537 83.3951 28.7383 83.8599 28.1074C84.3303 27.4766 84.5655 26.5994 84.5655 25.4761C84.5655 24.5298 84.3469 23.7882 83.9097 23.2515C83.4725 22.7147 82.8804 22.4463 82.1333 22.4463C81.342 22.4463 80.7056 22.723 80.2242 23.2764C79.7427 23.8242 79.502 24.5132 79.502 25.3433ZM94.6264 26.0903H88.6249C88.647 27.0366 88.9016 27.7671 89.3886 28.2817C89.8755 28.7964 90.5451 29.0537 91.3973 29.0537C92.3547 29.0537 93.2346 28.7383 94.037 28.1074V29.3857C93.2899 29.9281 92.3021 30.1992 91.0736 30.1992C89.8728 30.1992 88.9292 29.8146 88.243 29.0454C87.5569 28.2707 87.2138 27.1833 87.2138 25.7832C87.2138 24.4606 87.5873 23.3843 88.3344 22.5542C89.087 21.7186 90.0194 21.3008 91.1317 21.3008C92.244 21.3008 93.1045 21.6605 93.7133 22.3799C94.322 23.0993 94.6264 24.0981 94.6264 25.3765V26.0903ZM93.2318 24.9365C93.2263 24.1507 93.0354 23.5392 92.6591 23.1021C92.2883 22.6649 91.7709 22.4463 91.1068 22.4463C90.4649 22.4463 89.9198 22.6759 89.4716 23.1353C89.0233 23.5946 88.7466 24.195 88.6415 24.9365H93.2318ZM101.691 22.6621H99.1423V30H97.781V22.6621H95.2243V21.5H101.691V22.6621ZM102.986 30V21.5H104.347V24.7622H106.638C107.507 24.7622 108.196 24.9891 108.705 25.4429C109.22 25.8966 109.477 26.5303 109.477 27.3438C109.477 28.1628 109.22 28.8102 108.705 29.2861C108.19 29.762 107.54 30 106.754 30H102.986ZM104.347 25.9326V28.8379H106.389C107.518 28.8379 108.083 28.3398 108.083 27.3438C108.083 26.403 107.513 25.9326 106.373 25.9326H104.347ZM121.331 29.6099C120.678 30.0028 119.904 30.1992 119.007 30.1992C117.795 30.1992 116.816 29.8063 116.069 29.0205C115.327 28.2292 114.956 27.2054 114.956 25.9492C114.956 24.5492 115.357 23.4258 116.16 22.5791C116.962 21.7269 118.033 21.3008 119.372 21.3008C120.119 21.3008 120.778 21.4391 121.348 21.7158V23.1104C120.717 22.6676 120.042 22.4463 119.323 22.4463C118.454 22.4463 117.74 22.759 117.181 23.3843C116.628 24.0041 116.351 24.8203 116.351 25.833C116.351 26.8291 116.611 27.6149 117.131 28.1904C117.657 28.766 118.36 29.0537 119.239 29.0537C119.981 29.0537 120.678 28.8075 121.331 28.3149V29.6099ZM129.134 30H127.773V28.6719H127.74C127.148 29.6901 126.276 30.1992 125.125 30.1992C124.278 30.1992 123.614 29.9751 123.133 29.5269C122.657 29.0786 122.419 28.4837 122.419 27.7422C122.419 26.154 123.354 25.2298 125.225 24.9697L127.773 24.6128C127.773 23.1685 127.189 22.4463 126.022 22.4463C124.998 22.4463 124.074 22.7949 123.249 23.4922V22.0977C124.085 21.5664 125.048 21.3008 126.138 21.3008C128.135 21.3008 129.134 22.3577 129.134 24.4717V30ZM127.773 25.7002L125.723 25.9824C125.092 26.071 124.616 26.2287 124.295 26.4556C123.974 26.6769 123.814 27.0726 123.814 27.6426C123.814 28.0576 123.96 28.3979 124.253 28.6636C124.552 28.9237 124.948 29.0537 125.441 29.0537C126.116 29.0537 126.672 28.8185 127.109 28.3481C127.552 27.8722 127.773 27.2718 127.773 26.5469V25.7002ZM138.481 30H137.253V23.2183C137.131 23.4562 136.946 23.791 136.697 24.2227L132.77 30H131.359V21.5H132.604V28.1987C132.671 28.0382 132.815 27.7643 133.036 27.377L137.07 21.5H138.481V30ZM137.983 17.3662C137.9 18.1465 137.585 18.7635 137.037 19.2173C136.495 19.6655 135.814 19.8896 134.995 19.8896C134.154 19.8896 133.468 19.6655 132.936 19.2173C132.411 18.7635 132.123 18.1465 132.073 17.3662H133.418C133.495 18.4066 134.027 18.9268 135.012 18.9268C135.454 18.9268 135.82 18.7912 136.107 18.52C136.395 18.2433 136.572 17.8587 136.639 17.3662H137.983ZM146.235 22.6621H143.686V30H142.325V22.6621H139.768V21.5H146.235V22.6621Z" fill="white"/>
</svg>
