<svg width="168" height="48" viewBox="0 0 168 48" fill="none" xmlns="http://www.w3.org/2000/svg">
<rect width="168" height="48" rx="6" fill="#4282F8"/>
<path d="M31.0918 30.25H29.6807V19.6416H23.4634V30.25H22.0605V18.3467H31.0918V30.25ZM37.2098 30.4492C35.9536 30.4492 34.9492 30.0535 34.1966 29.2622C33.4496 28.4653 33.076 27.4111 33.076 26.0996C33.076 24.6719 33.4662 23.5568 34.2464 22.7544C35.0267 21.952 36.0809 21.5508 37.409 21.5508C38.6763 21.5508 39.6641 21.9409 40.3724 22.7212C41.0863 23.5015 41.4432 24.5833 41.4432 25.9668C41.4432 27.3226 41.0586 28.41 40.2894 29.229C39.5257 30.0425 38.4992 30.4492 37.2098 30.4492ZM37.3094 22.6963C36.4351 22.6963 35.7433 22.9951 35.2342 23.5928C34.7251 24.1849 34.4705 25.0039 34.4705 26.0498C34.4705 27.057 34.7279 27.8511 35.2425 28.4321C35.7572 29.0132 36.4461 29.3037 37.3094 29.3037C38.1893 29.3037 38.8644 29.0187 39.3348 28.4487C39.8107 27.8787 40.0487 27.068 40.0487 26.0166C40.0487 24.9541 39.8107 24.1351 39.3348 23.5596C38.8644 22.984 38.1893 22.6963 37.3094 22.6963ZM49.072 29.8599C48.419 30.2528 47.6442 30.4492 46.7477 30.4492C45.5358 30.4492 44.5563 30.0563 43.8093 29.2705C43.0677 28.4792 42.697 27.4554 42.697 26.1992C42.697 24.7992 43.0982 23.6758 43.9006 22.8291C44.703 21.9769 45.7738 21.5508 47.113 21.5508C47.86 21.5508 48.5186 21.6891 49.0886 21.9658V23.3604C48.4577 22.9176 47.7826 22.6963 47.0632 22.6963C46.1943 22.6963 45.4805 23.009 44.9216 23.6343C44.3682 24.2541 44.0915 25.0703 44.0915 26.083C44.0915 27.0791 44.3516 27.8649 44.8718 28.4404C45.3975 29.016 46.1003 29.3037 46.9802 29.3037C47.7217 29.3037 48.419 29.0575 49.072 28.5649V29.8599ZM59.9712 30.25H58.6265V23.2441C58.5047 23.5983 58.3166 24.1185 58.062 24.8047L55.937 30.25H54.7168L52.5254 24.8047C52.4092 24.5114 52.221 23.9912 51.961 23.2441V30.25H50.7905V21.75H52.5254L54.7666 27.2949C54.9271 27.6989 55.1319 28.2578 55.3809 28.9717L55.9868 27.3281L58.1616 21.75H59.9712V30.25ZM65.9398 30.4492C64.6836 30.4492 63.6792 30.0535 62.9266 29.2622C62.1796 28.4653 61.806 27.4111 61.806 26.0996C61.806 24.6719 62.1962 23.5568 62.9764 22.7544C63.7567 21.952 64.8109 21.5508 66.139 21.5508C67.4063 21.5508 68.3941 21.9409 69.1024 22.7212C69.8163 23.5015 70.1732 24.5833 70.1732 25.9668C70.1732 27.3226 69.7886 28.41 69.0194 29.229C68.2557 30.0425 67.2292 30.4492 65.9398 30.4492ZM66.0394 22.6963C65.1651 22.6963 64.4733 22.9951 63.9642 23.5928C63.4551 24.1849 63.2005 25.0039 63.2005 26.0498C63.2005 27.057 63.4579 27.8511 63.9725 28.4321C64.4872 29.0132 65.1761 29.3037 66.0394 29.3037C66.9193 29.3037 67.5944 29.0187 68.0648 28.4487C68.5407 27.8787 68.7787 27.068 68.7787 26.0166C68.7787 24.9541 68.5407 24.1351 68.0648 23.5596C67.5944 22.984 66.9193 22.6963 66.0394 22.6963ZM77.3454 22.9121H74.7971V30.25H73.4357V22.9121H70.8791V21.75H77.3454V22.9121ZM80.0352 29.0215H80.002V34.1597H78.6407V21.75H80.002V23.2441H80.0352C80.7048 22.1152 81.6843 21.5508 82.9737 21.5508C84.0694 21.5508 84.9244 21.9326 85.5386 22.6963C86.1529 23.4544 86.46 24.4727 86.46 25.751C86.46 27.1732 86.1141 28.3132 85.4224 29.1709C84.7307 30.0231 83.7844 30.4492 82.5835 30.4492C81.4823 30.4492 80.6329 29.9733 80.0352 29.0215ZM80.002 25.5933V26.7803C80.002 27.4831 80.2289 28.0807 80.6827 28.5732C81.142 29.0602 81.723 29.3037 82.4258 29.3037C83.2504 29.3037 83.8951 28.9883 84.3599 28.3574C84.8303 27.7266 85.0655 26.8494 85.0655 25.7261C85.0655 24.7798 84.8469 24.0382 84.4097 23.5015C83.9725 22.9647 83.3804 22.6963 82.6333 22.6963C81.842 22.6963 81.2056 22.973 80.7242 23.5264C80.2427 24.0742 80.002 24.7632 80.002 25.5933ZM95.1264 26.3403H89.1249C89.147 27.2866 89.4016 28.0171 89.8886 28.5317C90.3755 29.0464 91.0451 29.3037 91.8973 29.3037C92.8547 29.3037 93.7346 28.9883 94.537 28.3574V29.6357C93.7899 30.1781 92.8021 30.4492 91.5736 30.4492C90.3728 30.4492 89.4292 30.0646 88.743 29.2954C88.0569 28.5207 87.7138 27.4333 87.7138 26.0332C87.7138 24.7106 88.0873 23.6343 88.8344 22.8042C89.587 21.9686 90.5194 21.5508 91.6317 21.5508C92.744 21.5508 93.6045 21.9105 94.2133 22.6299C94.822 23.3493 95.1264 24.3481 95.1264 25.6265V26.3403ZM93.7318 25.1865C93.7263 24.4007 93.5354 23.7892 93.1591 23.3521C92.7883 22.9149 92.2709 22.6963 91.6068 22.6963C90.9649 22.6963 90.4198 22.9259 89.9716 23.3853C89.5233 23.8446 89.2466 24.445 89.1415 25.1865H93.7318ZM102.191 22.9121H99.6423V30.25H98.281V22.9121H95.7243V21.75H102.191V22.9121ZM103.486 30.25V21.75H104.847V25.0122H107.138C108.007 25.0122 108.696 25.2391 109.205 25.6929C109.72 26.1466 109.977 26.7803 109.977 27.5938C109.977 28.4128 109.72 29.0602 109.205 29.5361C108.69 30.012 108.04 30.25 107.254 30.25H103.486ZM104.847 26.1826V29.0879H106.889C108.018 29.0879 108.583 28.5898 108.583 27.5938C108.583 26.653 108.013 26.1826 106.873 26.1826H104.847ZM121.831 29.8599C121.178 30.2528 120.404 30.4492 119.507 30.4492C118.295 30.4492 117.316 30.0563 116.569 29.2705C115.827 28.4792 115.456 27.4554 115.456 26.1992C115.456 24.7992 115.857 23.6758 116.66 22.8291C117.462 21.9769 118.533 21.5508 119.872 21.5508C120.619 21.5508 121.278 21.6891 121.848 21.9658V23.3604C121.217 22.9176 120.542 22.6963 119.823 22.6963C118.954 22.6963 118.24 23.009 117.681 23.6343C117.128 24.2541 116.851 25.0703 116.851 26.083C116.851 27.0791 117.111 27.8649 117.631 28.4404C118.157 29.016 118.86 29.3037 119.739 29.3037C120.481 29.3037 121.178 29.0575 121.831 28.5649V29.8599ZM129.634 30.25H128.273V28.9219H128.24C127.648 29.9401 126.776 30.4492 125.625 30.4492C124.778 30.4492 124.114 30.2251 123.633 29.7769C123.157 29.3286 122.919 28.7337 122.919 27.9922C122.919 26.404 123.854 25.4798 125.725 25.2197L128.273 24.8628C128.273 23.4185 127.689 22.6963 126.522 22.6963C125.498 22.6963 124.574 23.0449 123.749 23.7422V22.3477C124.585 21.8164 125.548 21.5508 126.638 21.5508C128.635 21.5508 129.634 22.6077 129.634 24.7217V30.25ZM128.273 25.9502L126.223 26.2324C125.592 26.321 125.116 26.4787 124.795 26.7056C124.474 26.9269 124.314 27.3226 124.314 27.8926C124.314 28.3076 124.46 28.6479 124.753 28.9136C125.052 29.1737 125.448 29.3037 125.941 29.3037C126.616 29.3037 127.172 29.0685 127.609 28.5981C128.052 28.1222 128.273 27.5218 128.273 26.7969V25.9502ZM138.981 30.25H137.753V23.4683C137.631 23.7062 137.446 24.041 137.197 24.4727L133.27 30.25H131.859V21.75H133.104V28.4487C133.171 28.2882 133.315 28.0143 133.536 27.627L137.57 21.75H138.981V30.25ZM138.483 17.6162C138.4 18.3965 138.085 19.0135 137.537 19.4673C136.995 19.9155 136.314 20.1396 135.495 20.1396C134.654 20.1396 133.968 19.9155 133.436 19.4673C132.911 19.0135 132.623 18.3965 132.573 17.6162H133.918C133.995 18.6566 134.527 19.1768 135.512 19.1768C135.954 19.1768 136.32 19.0412 136.607 18.77C136.895 18.4933 137.072 18.1087 137.139 17.6162H138.483ZM146.735 22.9121H144.186V30.25H142.825V22.9121H140.268V21.75H146.735V22.9121Z" fill="white"/>
</svg>
