<svg width="309" height="103" viewBox="0 0 309 103" fill="none" xmlns="http://www.w3.org/2000/svg">
<g clip-path="url(#clip0_483_104)">
<path d="M39.1875 4.0625C40.8958 5.77083 42.0625 7.79167 42.6875 10.125C43.3125 12.5 43.625 14.9583 43.625 17.5C43.625 30.5833 43.625 50.2083 43.625 76.375C43.625 78.875 43.3125 81.3125 42.6875 83.6875C42.0625 86.0625 40.8958 88.1042 39.1875 89.8125C37.6042 91.3542 35.75 92.4583 33.625 93.125C31.5 93.7917 29.2917 94.1667 27 94.25C27 96.25 27 99.25 27 103.25C24.7083 103.25 21.2917 103.25 16.75 103.25C16.75 101.25 16.75 98.25 16.75 94.25C14.4583 94.1667 12.25 93.7917 10.125 93.125C8 92.4583 6.16667 91.3542 4.625 89.8125C2.91667 88.1042 1.72917 86.0625 1.0625 83.6875C0.4375 81.3125 0.125 78.875 0.125 76.375C0.125 63.2917 0.125 43.6667 0.125 17.5C0.125 14.9583 0.4375 12.5 1.0625 10.125C1.72917 7.79167 2.91667 5.77083 4.625 4.0625C6.33333 2.35417 8.35417 1.16667 10.6875 0.5C13.0625 -0.125 15.5208 -0.4375 18.0625 -0.4375C19.7708 -0.4375 22.3333 -0.4375 25.75 -0.4375C28.25 -0.4375 30.6875 -0.125 33.0625 0.5C35.4375 1.16667 37.4792 2.35417 39.1875 4.0625ZM12.125 10.9375C11.6667 11.3958 11.2708 12.0833 10.9375 13C10.5625 13.9167 10.375 15.1875 10.375 16.8125C10.375 30.1875 10.375 50.25 10.375 77C10.375 78.6667 10.5625 79.9583 10.9375 80.875C11.2708 81.7917 11.6667 82.4792 12.125 82.9375C12.5833 83.3542 13.2708 83.75 14.1875 84.125C15.1042 84.5 16.3958 84.6875 18.0625 84.6875C19.7708 84.6875 22.3333 84.6875 25.75 84.6875C27.375 84.6875 28.6458 84.5 29.5625 84.125C30.4792 83.75 31.1667 83.3542 31.625 82.9375C32.0833 82.4792 32.5 81.7917 32.875 80.875C33.2083 79.9583 33.375 78.6667 33.375 77C33.375 63.625 33.375 43.5625 33.375 16.8125C33.375 15.1875 33.2083 13.9167 32.875 13C32.5 12.0833 32.0833 11.3958 31.625 10.9375C31.1667 10.4792 30.4792 10.0625 29.5625 9.6875C28.6458 9.35417 27.375 9.1875 25.75 9.1875C24.0417 9.1875 21.4792 9.1875 18.0625 9.1875C16.3958 9.1875 15.1042 9.35417 14.1875 9.6875C13.2708 10.0625 12.5833 10.4792 12.125 10.9375Z" fill="url(#paint0_linear_483_104)"/>
<path d="M94.815 76.375C94.815 78.875 94.5025 81.3125 93.8775 83.6875C93.2525 86.0625 92.0858 88.1042 90.3775 89.8125C88.6692 91.5208 86.6275 92.6875 84.2525 93.3125C81.8775 93.9375 79.44 94.25 76.94 94.25C75.2317 94.25 72.6692 94.25 69.2525 94.25C66.7108 94.25 64.2525 93.9375 61.8775 93.3125C59.5442 92.6875 57.5233 91.5208 55.815 89.8125C54.1067 88.1042 52.9192 86.0625 52.2525 83.6875C51.6275 81.3125 51.315 78.875 51.315 76.375C51.315 59.5833 51.315 34.3958 51.315 0.8125C53.6067 0.8125 57.0233 0.8125 61.565 0.8125C61.565 17.7708 61.565 43.1667 61.565 77C61.565 78.6667 61.7525 79.9583 62.1275 80.875C62.4608 81.7917 62.8567 82.4792 63.315 82.9375C63.7733 83.3542 64.4608 83.75 65.3775 84.125C66.2942 84.5 67.5858 84.6875 69.2525 84.6875C70.9608 84.6875 73.5233 84.6875 76.94 84.6875C78.565 84.6875 79.8358 84.5 80.7525 84.125C81.6692 83.75 82.3567 83.3542 82.815 82.9375C83.2733 82.4792 83.69 81.7917 84.065 80.875C84.3983 79.9583 84.565 78.6667 84.565 77C84.565 60.0833 84.565 34.6875 84.565 0.8125C86.8567 0.8125 90.2733 0.8125 94.815 0.8125C94.815 13.4375 94.815 26.0417 94.815 38.625C94.815 51.2083 94.815 63.7917 94.815 76.375Z" fill="url(#paint1_linear_483_104)"/>
<path d="M133.443 75.0625C136.068 58.5625 140.005 33.8125 145.255 0.8125C149.38 0.8125 155.568 0.8125 163.818 0.8125C163.818 21.3125 163.818 52.0417 163.818 93C161.526 93 158.109 93 153.568 93C153.568 75.375 153.568 48.9167 153.568 13.625C153.401 13.625 153.193 13.625 152.943 13.625C150.151 31.25 145.963 57.7083 140.38 93C137.172 93 132.359 93 125.942 93C123.151 75.375 118.963 48.9167 113.38 13.625C113.255 13.625 113.047 13.625 112.755 13.625C112.755 31.25 112.755 57.7083 112.755 93C110.463 93 107.047 93 102.505 93C102.505 72.5 102.505 41.7708 102.505 0.8125C106.63 0.8125 112.817 0.8125 121.067 0.8125C123.692 17.3125 127.609 42.0625 132.818 75.0625C132.943 75.0625 133.047 75.0625 133.13 75.0625C133.255 75.0625 133.359 75.0625 133.443 75.0625Z" fill="url(#paint2_linear_483_104)"/>
<path d="M207.258 10.4375C201.591 10.4375 193.07 10.4375 181.695 10.4375C181.695 17.1042 181.695 27.125 181.695 40.5C186.82 40.5 194.487 40.5 204.695 40.5C204.695 42.6667 204.695 45.875 204.695 50.125C199.612 50.125 191.945 50.125 181.695 50.125C181.695 57.5 181.695 68.5833 181.695 83.375C187.362 83.375 195.883 83.375 207.258 83.375C207.258 85.5417 207.258 88.75 207.258 93C199.299 93 187.362 93 171.445 93C171.445 72.5 171.445 41.7708 171.445 0.8125C179.403 0.8125 191.341 0.8125 207.258 0.8125C207.258 2.4375 207.258 4.04167 207.258 5.625C207.258 7.25 207.258 8.85417 207.258 10.4375Z" fill="url(#paint3_linear_483_104)"/>
<path d="M252.697 4.0625C254.406 5.77083 255.573 7.79167 256.198 10.125C256.823 12.5 257.135 14.9583 257.135 17.5C257.135 30.5833 257.135 50.2083 257.135 76.375C257.135 78.875 256.823 81.3125 256.198 83.6875C255.573 86.0625 254.406 88.1042 252.697 89.8125C251.114 91.3542 249.26 92.4583 247.135 93.125C245.01 93.7917 242.802 94.1667 240.51 94.25C240.51 96.25 240.51 99.25 240.51 103.25C238.218 103.25 234.802 103.25 230.26 103.25C230.26 101.25 230.26 98.25 230.26 94.25C227.968 94.1667 225.76 93.7917 223.635 93.125C221.51 92.4583 219.677 91.3542 218.135 89.8125C216.427 88.1042 215.239 86.0625 214.572 83.6875C213.947 81.3125 213.635 78.875 213.635 76.375C213.635 63.2917 213.635 43.6667 213.635 17.5C213.635 14.9583 213.947 12.5 214.572 10.125C215.239 7.79167 216.427 5.77083 218.135 4.0625C219.843 2.35417 221.864 1.16667 224.197 0.5C226.572 -0.125 229.031 -0.4375 231.572 -0.4375C233.281 -0.4375 235.843 -0.4375 239.26 -0.4375C241.76 -0.4375 244.197 -0.125 246.572 0.5C248.947 1.16667 250.989 2.35417 252.697 4.0625ZM225.635 10.9375C225.177 11.3958 224.781 12.0833 224.447 13C224.072 13.9167 223.885 15.1875 223.885 16.8125C223.885 30.1875 223.885 50.25 223.885 77C223.885 78.6667 224.072 79.9583 224.447 80.875C224.781 81.7917 225.177 82.4792 225.635 82.9375C226.093 83.3542 226.781 83.75 227.697 84.125C228.614 84.5 229.906 84.6875 231.572 84.6875C233.281 84.6875 235.843 84.6875 239.26 84.6875C240.885 84.6875 242.156 84.5 243.072 84.125C243.989 83.75 244.677 83.3542 245.135 82.9375C245.593 82.4792 246.01 81.7917 246.385 80.875C246.718 79.9583 246.885 78.6667 246.885 77C246.885 63.625 246.885 43.5625 246.885 16.8125C246.885 15.1875 246.718 13.9167 246.385 13C246.01 12.0833 245.593 11.3958 245.135 10.9375C244.677 10.4792 243.989 10.0625 243.072 9.6875C242.156 9.35417 240.885 9.1875 239.26 9.1875C237.552 9.1875 234.989 9.1875 231.572 9.1875C229.906 9.1875 228.614 9.35417 227.697 9.6875C226.781 10.0625 226.093 10.4792 225.635 10.9375Z" fill="url(#paint4_linear_483_104)"/>
<path d="M298.138 93C297.679 90 296.971 85.5208 296.013 79.5625C291.013 79.5625 283.492 79.5625 273.45 79.5625C272.992 82.5625 272.283 87.0417 271.325 93C269.033 93 265.575 93 260.95 93C264.2 72.5 269.075 41.7708 275.575 0.8125C279.658 0.8125 285.763 0.8125 293.888 0.8125C297.138 21.3125 302.013 52.0417 308.513 93C306.763 93 305.033 93 303.325 93C301.617 93 299.888 93 298.138 93ZM294.513 69.9375C292.388 56.7292 289.242 36.8958 285.075 10.4375C284.908 10.4375 284.7 10.4375 284.45 10.4375C282.325 23.6458 279.179 43.4792 275.013 69.9375C278.263 69.9375 281.513 69.9375 284.763 69.9375C288.013 69.9375 291.263 69.9375 294.513 69.9375Z" fill="url(#paint5_linear_483_104)"/>
</g>
<defs>
<linearGradient id="paint0_linear_483_104" x1="154.319" y1="-0.4375" x2="154.319" y2="103.25" gradientUnits="userSpaceOnUse">
<stop stop-color="#E3E3E3"/>
<stop offset="0.928285" stop-color="white"/>
</linearGradient>
<linearGradient id="paint1_linear_483_104" x1="154.319" y1="-0.4375" x2="154.319" y2="103.25" gradientUnits="userSpaceOnUse">
<stop stop-color="#E3E3E3"/>
<stop offset="0.928285" stop-color="white"/>
</linearGradient>
<linearGradient id="paint2_linear_483_104" x1="154.319" y1="-0.4375" x2="154.319" y2="103.25" gradientUnits="userSpaceOnUse">
<stop stop-color="#E3E3E3"/>
<stop offset="0.928285" stop-color="white"/>
</linearGradient>
<linearGradient id="paint3_linear_483_104" x1="154.319" y1="-0.4375" x2="154.319" y2="103.25" gradientUnits="userSpaceOnUse">
<stop stop-color="#E3E3E3"/>
<stop offset="0.928285" stop-color="white"/>
</linearGradient>
<linearGradient id="paint4_linear_483_104" x1="154.319" y1="-0.4375" x2="154.319" y2="103.25" gradientUnits="userSpaceOnUse">
<stop stop-color="#E3E3E3"/>
<stop offset="0.928285" stop-color="white"/>
</linearGradient>
<linearGradient id="paint5_linear_483_104" x1="154.319" y1="-0.4375" x2="154.319" y2="103.25" gradientUnits="userSpaceOnUse">
<stop stop-color="#E3E3E3"/>
<stop offset="0.928285" stop-color="white"/>
</linearGradient>
<clipPath id="clip0_483_104">
<rect width="309" height="103" fill="white"/>
</clipPath>
</defs>
</svg>
