<svg width="309" height="95" viewBox="0 0 309 95" fill="none" xmlns="http://www.w3.org/2000/svg">
<g clip-path="url(#clip0_483_104)">
<path d="M39.1875 6.0625C40.8958 7.77083 42.0625 9.79167 42.6875 12.125C43.3125 14.5 43.625 16.9583 43.625 19.5C43.625 32.5833 43.625 52.2083 43.625 78.375C43.625 80.875 43.3125 83.3125 42.6875 85.6875C42.0625 88.0625 40.8958 90.1042 39.1875 91.8125C37.6042 93.3542 35.75 94.4583 33.625 95.125C31.5 95.7917 29.2917 96.1667 27 96.25C27 98.25 27 101.25 27 105.25C24.7083 105.25 21.2917 105.25 16.75 105.25C16.75 103.25 16.75 100.25 16.75 96.25C14.4583 96.1667 12.25 95.7917 10.125 95.125C8 94.4583 6.16667 93.3542 4.625 91.8125C2.91667 90.1042 1.72917 88.0625 1.0625 85.6875C0.4375 83.3125 0.125 80.875 0.125 78.375C0.125 65.2917 0.125 45.6667 0.125 19.5C0.125 16.9583 0.4375 14.5 1.0625 12.125C1.72917 9.79167 2.91667 7.77083 4.625 6.0625C6.33333 4.35417 8.35417 3.16667 10.6875 2.5C13.0625 1.875 15.5208 1.5625 18.0625 1.5625C19.7708 1.5625 22.3333 1.5625 25.75 1.5625C28.25 1.5625 30.6875 1.875 33.0625 2.5C35.4375 3.16667 37.4792 4.35417 39.1875 6.0625ZM12.125 12.9375C11.6667 13.3958 11.2708 14.0833 10.9375 15C10.5625 15.9167 10.375 17.1875 10.375 18.8125C10.375 32.1875 10.375 52.25 10.375 79C10.375 80.6667 10.5625 81.9583 10.9375 82.875C11.2708 83.7917 11.6667 84.4792 12.125 84.9375C12.5833 85.3542 13.2708 85.75 14.1875 86.125C15.1042 86.5 16.3958 86.6875 18.0625 86.6875C19.7708 86.6875 22.3333 86.6875 25.75 86.6875C27.375 86.6875 28.6458 86.5 29.5625 86.125C30.4792 85.75 31.1667 85.3542 31.625 84.9375C32.0833 84.4792 32.5 83.7917 32.875 82.875C33.2083 81.9583 33.375 80.6667 33.375 79C33.375 65.625 33.375 45.5625 33.375 18.8125C33.375 17.1875 33.2083 15.9167 32.875 15C32.5 14.0833 32.0833 13.3958 31.625 12.9375C31.1667 12.4792 30.4792 12.0625 29.5625 11.6875C28.6458 11.3542 27.375 11.1875 25.75 11.1875C24.0417 11.1875 21.4792 11.1875 18.0625 11.1875C16.3958 11.1875 15.1042 11.3542 14.1875 11.6875C13.2708 12.0625 12.5833 12.4792 12.125 12.9375Z" fill="url(#paint0_linear_483_104)"/>
<path d="M94.815 78.375C94.815 80.875 94.5025 83.3125 93.8775 85.6875C93.2525 88.0625 92.0858 90.1042 90.3775 91.8125C88.6692 93.5208 86.6275 94.6875 84.2525 95.3125C81.8775 95.9375 79.44 96.25 76.94 96.25C75.2317 96.25 72.6692 96.25 69.2525 96.25C66.7108 96.25 64.2525 95.9375 61.8775 95.3125C59.5442 94.6875 57.5233 93.5208 55.815 91.8125C54.1067 90.1042 52.9192 88.0625 52.2525 85.6875C51.6275 83.3125 51.315 80.875 51.315 78.375C51.315 61.5833 51.315 36.3958 51.315 2.8125C53.6067 2.8125 57.0233 2.8125 61.565 2.8125C61.565 19.7708 61.565 45.1667 61.565 79C61.565 80.6667 61.7525 81.9583 62.1275 82.875C62.4608 83.7917 62.8567 84.4792 63.315 84.9375C63.7733 85.3542 64.4608 85.75 65.3775 86.125C66.2942 86.5 67.5858 86.6875 69.2525 86.6875C70.9608 86.6875 73.5233 86.6875 76.94 86.6875C78.565 86.6875 79.8358 86.5 80.7525 86.125C81.6692 85.75 82.3567 85.3542 82.815 84.9375C83.2733 84.4792 83.69 83.7917 84.065 82.875C84.3983 81.9583 84.565 80.6667 84.565 79C84.565 62.0833 84.565 36.6875 84.565 2.8125C86.8567 2.8125 90.2733 2.8125 94.815 2.8125C94.815 15.4375 94.815 28.0417 94.815 40.625C94.815 53.2083 94.815 65.7917 94.815 78.375Z" fill="url(#paint1_linear_483_104)"/>
<path d="M133.443 77.0625C136.068 60.5625 140.005 35.8125 145.255 2.8125C149.38 2.8125 155.568 2.8125 163.818 2.8125C163.818 23.3125 163.818 54.0417 163.818 95C161.526 95 158.109 95 153.568 95C153.568 77.375 153.568 50.9167 153.568 15.625C153.401 15.625 153.193 15.625 152.943 15.625C150.151 33.25 145.963 59.7083 140.38 95C137.172 95 132.359 95 125.942 95C123.151 77.375 118.963 50.9167 113.38 15.625C113.255 15.625 113.047 15.625 112.755 15.625C112.755 33.25 112.755 59.7083 112.755 95C110.463 95 107.047 95 102.505 95C102.505 74.5 102.505 43.7708 102.505 2.8125C106.63 2.8125 112.817 2.8125 121.067 2.8125C123.692 19.3125 127.609 44.0625 132.818 77.0625C132.943 77.0625 133.047 77.0625 133.13 77.0625C133.255 77.0625 133.359 77.0625 133.443 77.0625Z" fill="url(#paint2_linear_483_104)"/>
<path d="M207.258 12.4375C201.591 12.4375 193.07 12.4375 181.695 12.4375C181.695 19.1042 181.695 29.125 181.695 42.5C186.82 42.5 194.487 42.5 204.695 42.5C204.695 44.6667 204.695 47.875 204.695 52.125C199.612 52.125 191.945 52.125 181.695 52.125C181.695 59.5 181.695 70.5833 181.695 85.375C187.362 85.375 195.883 85.375 207.258 85.375C207.258 87.5417 207.258 90.75 207.258 95C199.299 95 187.362 95 171.445 95C171.445 74.5 171.445 43.7708 171.445 2.8125C179.403 2.8125 191.341 2.8125 207.258 2.8125C207.258 4.4375 207.258 6.04167 207.258 7.625C207.258 9.25 207.258 10.8542 207.258 12.4375Z" fill="url(#paint3_linear_483_104)"/>
<path d="M252.697 6.0625C254.406 7.77083 255.573 9.79167 256.198 12.125C256.823 14.5 257.135 16.9583 257.135 19.5C257.135 32.5833 257.135 52.2083 257.135 78.375C257.135 80.875 256.823 83.3125 256.198 85.6875C255.573 88.0625 254.406 90.1042 252.697 91.8125C251.114 93.3542 249.26 94.4583 247.135 95.125C245.01 95.7917 242.802 96.1667 240.51 96.25C240.51 98.25 240.51 101.25 240.51 105.25C238.218 105.25 234.802 105.25 230.26 105.25C230.26 103.25 230.26 100.25 230.26 96.25C227.968 96.1667 225.76 95.7917 223.635 95.125C221.51 94.4583 219.677 93.3542 218.135 91.8125C216.427 90.1042 215.239 88.0625 214.572 85.6875C213.947 83.3125 213.635 80.875 213.635 78.375C213.635 65.2917 213.635 45.6667 213.635 19.5C213.635 16.9583 213.947 14.5 214.572 12.125C215.239 9.79167 216.427 7.77083 218.135 6.0625C219.843 4.35417 221.864 3.16667 224.197 2.5C226.572 1.875 229.031 1.5625 231.572 1.5625C233.281 1.5625 235.843 1.5625 239.26 1.5625C241.76 1.5625 244.197 1.875 246.572 2.5C248.947 3.16667 250.989 4.35417 252.697 6.0625ZM225.635 12.9375C225.177 13.3958 224.781 14.0833 224.447 15C224.072 15.9167 223.885 17.1875 223.885 18.8125C223.885 32.1875 223.885 52.25 223.885 79C223.885 80.6667 224.072 81.9583 224.447 82.875C224.781 83.7917 225.177 84.4792 225.635 84.9375C226.093 85.3542 226.781 85.75 227.697 86.125C228.614 86.5 229.906 86.6875 231.572 86.6875C233.281 86.6875 235.843 86.6875 239.26 86.6875C240.885 86.6875 242.156 86.5 243.072 86.125C243.989 85.75 244.677 85.3542 245.135 84.9375C245.593 84.4792 246.01 83.7917 246.385 82.875C246.718 81.9583 246.885 80.6667 246.885 79C246.885 65.625 246.885 45.5625 246.885 18.8125C246.885 17.1875 246.718 15.9167 246.385 15C246.01 14.0833 245.593 13.3958 245.135 12.9375C244.677 12.4792 243.989 12.0625 243.072 11.6875C242.156 11.3542 240.885 11.1875 239.26 11.1875C237.552 11.1875 234.989 11.1875 231.572 11.1875C229.906 11.1875 228.614 11.3542 227.697 11.6875C226.781 12.0625 226.093 12.4792 225.635 12.9375Z" fill="url(#paint4_linear_483_104)"/>
<path d="M298.138 95C297.679 92 296.971 87.5208 296.013 81.5625C291.013 81.5625 283.492 81.5625 273.45 81.5625C272.992 84.5625 272.283 89.0417 271.325 95C269.033 95 265.575 95 260.95 95C264.2 74.5 269.075 43.7708 275.575 2.8125C279.658 2.8125 285.763 2.8125 293.888 2.8125C297.138 23.3125 302.013 54.0417 308.513 95C306.763 95 305.033 95 303.325 95C301.617 95 299.888 95 298.138 95ZM294.513 71.9375C292.388 58.7292 289.242 38.8958 285.075 12.4375C284.908 12.4375 284.7 12.4375 284.45 12.4375C282.325 25.6458 279.179 45.4792 275.013 71.9375C278.263 71.9375 281.513 71.9375 284.763 71.9375C288.013 71.9375 291.263 71.9375 294.513 71.9375Z" fill="url(#paint5_linear_483_104)"/>
</g>
<defs>
<linearGradient id="paint0_linear_483_104" x1="154.319" y1="1.5625" x2="154.319" y2="105.25" gradientUnits="userSpaceOnUse">
<stop stop-color="#D9D9D9"/>
<stop offset="0.928285" stop-color="white"/>
</linearGradient>
<linearGradient id="paint1_linear_483_104" x1="154.319" y1="1.5625" x2="154.319" y2="105.25" gradientUnits="userSpaceOnUse">
<stop stop-color="#D9D9D9"/>
<stop offset="0.928285" stop-color="white"/>
</linearGradient>
<linearGradient id="paint2_linear_483_104" x1="154.319" y1="1.5625" x2="154.319" y2="105.25" gradientUnits="userSpaceOnUse">
<stop stop-color="#D9D9D9"/>
<stop offset="0.928285" stop-color="white"/>
</linearGradient>
<linearGradient id="paint3_linear_483_104" x1="154.319" y1="1.5625" x2="154.319" y2="105.25" gradientUnits="userSpaceOnUse">
<stop stop-color="#D9D9D9"/>
<stop offset="0.928285" stop-color="white"/>
</linearGradient>
<linearGradient id="paint4_linear_483_104" x1="154.319" y1="1.5625" x2="154.319" y2="105.25" gradientUnits="userSpaceOnUse">
<stop stop-color="#D9D9D9"/>
<stop offset="0.928285" stop-color="white"/>
</linearGradient>
<linearGradient id="paint5_linear_483_104" x1="154.319" y1="1.5625" x2="154.319" y2="105.25" gradientUnits="userSpaceOnUse">
<stop stop-color="#D9D9D9"/>
<stop offset="0.928285" stop-color="white"/>
</linearGradient>
<clipPath id="clip0_483_104">
<rect width="309" height="95" fill="white"/>
</clipPath>
</defs>
</svg>
